<?xml version="1.0" encoding="utf-8"?>
<!-- Generator: Adobe Illustrator 15.0.0, SVG Export Plug-In . SVG Version: 6.00 Build 0)  -->
<!DOCTYPE svg PUBLIC "-//W3C//DTD SVG 1.1//EN" "http://www.w3.org/Graphics/SVG/1.1/DTD/svg11.dtd">
<svg version="1.1"
    xmlns="http://www.w3.org/2000/svg"
    xmlns:xlink="http://www.w3.org/1999/xlink" x="0px" y="0px" width="16px" height="16px" viewBox="0 0 16 16" enable-background="new 0 0 16 16" xml:space="preserve">
    <g>
        <path fill="#818181" d="M13.143,15.5H2.858c-1.308,0-2.371-1.062-2.371-2.367V2.866C0.487,1.562,1.55,0.5,2.858,0.5h10.285 c1.308,0,2.371,1.062,2.371,2.366v10.267C15.514,14.438,14.45,15.5,13.143,15.5z M2.858,1.5c-0.756,0-1.371,0.613-1.371,1.366 v10.267c0,0.754,0.615,1.367,1.371,1.367h10.285c0.756,0,1.371-0.613,1.371-1.367V2.866c0-0.753-0.615-1.366-1.371-1.366H2.858z"/>
    </g>
</svg>
