<?xml version="1.0" encoding="utf-8"?>
<!-- Generator: Adobe Illustrator 15.0.0, SVG Export Plug-In . SVG Version: 6.00 Build 0)  -->
<!DOCTYPE svg PUBLIC "-//W3C//DTD SVG 1.1//EN" "http://www.w3.org/Graphics/SVG/1.1/DTD/svg11.dtd">
<svg version="1.1"
    xmlns="http://www.w3.org/2000/svg"
    xmlns:xlink="http://www.w3.org/1999/xlink" x="0px" y="0px" width="16px" height="16px" viewBox="0 0 16 16" enable-background="new 0 0 16 16" xml:space="preserve">
    <g>
        <path fill="#818181" d="M8,15.484c-4.125,0-7.482-3.357-7.482-7.484c0-1.999,0.778-3.878,2.191-5.292			C4.123,1.294,6.001,0.516,8,0.516c4.126,0,7.482,3.357,7.482,7.484C15.482,12.127,12.126,15.484,8,15.484z M8,1.516			c-1.731,0-3.359,0.674-4.583,1.899C2.192,4.64,1.518,6.268,1.518,8c0,3.575,2.908,6.484,6.482,6.484S14.482,11.575,14.482,8			S11.574,1.516,8,1.516z    M8,4.947c1.686,0,3.052,1.366,3.052,3.053c0,1.686-1.366,3.053-3.052,3.053		c-1.686,0-3.052-1.367-3.052-3.053C4.949,6.313,6.315,4.947,8,4.947z"></path>
    </g>
</svg>
