<?xml version="1.0" standalone="no"?>
<!DOCTYPE svg PUBLIC "-//W3C//DTD SVG 1.1//EN" "http://www.w3.org/Graphics/SVG/1.1/DTD/svg11.dtd" >
<svg xmlns="http://www.w3.org/2000/svg">
<metadata>Generated by IcoMoon</metadata>
<defs>
<font id="icomoon" horiz-adv-x="1024">
<font-face units-per-em="1024" ascent="960" descent="-64" />
<missing-glyph horiz-adv-x="1024" />
<glyph unicode="&#x20;" horiz-adv-x="512" d="" />
<glyph unicode="&#xe900;" glyph-name="analysis-baseData" d="M621.382 221.929c-4.655-2.42-8.937-5.073-13.359-8.006-12.009-8.052-23.459-16.803-35.933-24.064-6.796-3.817-15.034-5.911-22.854-6.796-9.169-1.071-17.082 10.566-15.174 18.851 8.564 37.236 17.036 74.519 26.577 111.523 16.477 64 33.932 127.721 50.735 191.628 4.143 15.453 4.887 31.279 1.722 47.011-2.653 12.148-8.006 22.714-20.48 27.322-10.193 3.724-20.992 3.258-30.534-1.257-16.756-8.006-33.932-15.919-49.105-26.438-35.747-24.902-70.377-51.293-105.472-77.172-8.518-6.191-16.803-12.707-25.833-19.549 3.444-6.004 6.563-11.729 10.1-17.175 2.327-3.537 8.378-4.003 11.636-1.629 10.007 7.075 19.642 14.895 30.255 21.085 12.288 7.168 25.041 13.452 38.074 18.991 8.425 3.631 18.665-0.652 19.409-7.354 0.652-5.818 0.884-12.195-0.512-17.827-12.893-53.807-26.531-107.38-39.284-161.233-9.728-41.332-18.991-82.711-27.415-124.369-3.491-17.268 1.396-33.513 12.614-47.616 11.729-14.801 33.094-20.62 50.362-13.172 32.349 13.917 61.999 32.628 91.183 51.991 21.364 14.103 42.356 28.812 64.186 43.706-2.932 6.284-5.353 12.009-8.192 17.315-2.746 5.539-7.354 7.075-12.707 4.236v0zM531.037 792.669c-12.009 2.839-24.25 2.979-35.7-2.188-29.091-13.079-40.541-37.469-43.194-65.164 0.512-14.988 3.398-26.903 11.357-36.911 11.636-14.615 26.903-20.387 45.568-19.363 15.965 0.838 29.37 7.261 40.215 17.827 21.132 20.713 28.3 45.568 17.641 74.287-6.284 16.896-18.479 27.322-35.887 31.511v0zM512 866.909c231.005 0 418.909-187.951 418.909-418.909 0-231.005-187.904-418.909-418.909-418.909-230.959 0-418.909 187.904-418.909 418.909 0 230.959 187.951 418.909 418.909 418.909zM512 913.455c-257.024 0-465.455-208.384-465.455-465.455 0-256.977 208.431-465.455 465.455-465.455 257.071 0 465.455 208.477 465.455 465.455 0 257.071-208.384 465.455-465.455 465.455v0z" />
<glyph unicode="&#xe901;" glyph-name="analysis-navigation" d="M46.545 564.364l930.909 349.091-364.265-930.909-60.695 523.636-505.949 58.182z" />
<glyph unicode="&#xe902;" glyph-name="analysis-plan" d="M896.186 111.709l-104.169-116.364c-7.028-7.913-16.849-12.8-27.555-12.8-10.799 0-20.527 4.887-27.648 12.8l-52.084 58.182c-6.982 7.82-11.357 18.711-11.357 30.813 0 24.204 17.455 43.66 39.005 43.66 10.752 0 20.527-4.887 27.648-12.707l24.436-27.369 76.567 85.551c7.075 7.82 16.803 12.707 27.648 12.707 21.597 0 39.052-19.456 39.052-43.66-0.093-11.962-4.561-22.993-11.543-30.813zM763.951 149.039c-13.731 13.871-31.604 22.575-51.572 22.575-43.148 0-78.103-39.098-78.103-87.273 0-24.157 8.89-45.708 23.087-61.44l-0.279-0.279 54.831-40.076h-540.439c-21.551 0-55.11 18.292-55.11 42.356v761.623c0 24.111 24.25 33.839 45.801 33.839h45.801l9.775-37.841c0-48.175 22.063-80.617 65.164-80.617 43.148 0 90.95 32.442 90.95 80.617v43.66h39.098v-43.66c0-48.175 35.049-80.617 78.196-80.617 43.194 0 78.057 32.442 78.057 80.617v43.66h39.005v-43.66c0-48.175 48.081-80.617 91.183-80.617 43.148 0 65.024 32.442 65.024 80.617l-6.703 37.841h45.801c21.551 0 45.754-18.199 45.754-42.263v-550.074c-21.551 0-21.969-7.913-35.933-23.738l-49.385-55.249zM217.74 164.352c0-20.108 14.522-36.352 32.489-36.352h247.343c17.967 0 32.535 16.384 32.535 36.352v0 0 0 0c0 20.108-14.569 36.352-32.535 36.352h-247.343c-17.967 0-32.489-16.244-32.489-36.352zM725.364 578.886h-468.62c-21.551 0-39.005-19.456-39.005-43.66 0-24.111 17.455-43.66 39.005-43.66h468.62c21.597 0 39.098 19.549 39.098 43.66 0 24.25-17.501 43.66-39.098 43.66zM725.364 389.818h-468.62c-21.551 0-39.005-19.456-39.005-43.66 0-24.157 17.455-43.66 39.005-43.66h468.62c21.597 0 39.098 19.549 39.098 43.66 0 24.204-17.501 43.66-39.098 43.66zM686.359 738.909c-21.644 0-39.098 19.549-39.098 43.66v87.226c0 24.204 17.455 43.66 39.098 43.66 21.504 0 39.005-19.456 39.005-43.66v-87.273c0-24.064-17.501-43.613-39.005-43.613zM491.055 738.909c-21.551 0-39.052 19.549-39.052 43.66v87.226c0 24.204 17.501 43.66 39.052 43.66 21.597 0 39.052-19.456 39.052-43.66v-87.273c0-24.064-17.455-43.613-39.052-43.613zM295.796 738.909c-21.551 0-39.052 19.549-39.052 43.66v87.226c0 24.204 17.501 43.66 39.052 43.66s39.098-19.456 39.098-43.66v-87.273c0-24.064-17.548-43.613-39.098-43.613z" />
<glyph unicode="&#xe903;" glyph-name="analysis-target" d="M674.909 448c0-77.119-62.517-139.636-139.636-139.636s-139.636 62.517-139.636 139.636c0 77.119 62.517 139.636 139.636 139.636s139.636-62.517 139.636-139.636zM535.273 773.818c179.619 0 325.818-146.153 325.818-325.818 0-179.619-146.199-325.818-325.818-325.818-179.665 0-325.818 146.199-325.818 325.818 0 179.665 146.153 325.818 325.818 325.818zM535.273 820.364c-205.591 0-372.364-166.726-372.364-372.364s166.772-372.364 372.364-372.364c205.638 0 372.364 166.726 372.364 372.364s-166.726 372.364-372.364 372.364v0zM512 960h46.545v-1024h-46.545v1024zM0 494.545h1024v-46.545h-1024v46.545z" />
<glyph unicode="&#xe904;" glyph-name="analysis-town" d="M520.611 173.289c0 0-284.207 309.341-284.207 462.615s127.255 277.551 284.207 277.551c156.951 0 284.3-124.276 284.3-277.551 0-153.367-284.3-462.615-284.3-462.615zM520.611 820.969c-104.681 0-189.487-82.897-189.487-185.065 0-102.26 84.806-185.111 189.487-185.111s189.487 82.804 189.487 185.111c0 102.121-84.806 185.065-189.487 185.065zM520.611 543.372c-52.364 0-94.72 41.472-94.72 92.532s42.356 92.486 94.72 92.486c52.317 0 94.767-41.472 94.767-92.486 0-51.107-42.449-92.532-94.767-92.532zM867.747 375.343c14.801-26.345 28.998-63.069 28.998-92.812 0-136.192-178.269-252.369-387.631-252.369-209.268 0-387.631 116.177-387.631 252.369 0 29.743 20.015 66.467 34.723 92.812-54.086-40.867-86.388-91.229-86.388-146.060 0-136.192 197.958-246.737 442.182-246.737 244.177 0 442.182 110.545 442.182 246.737 0 54.831-32.349 105.193-86.435 146.060z" />
<glyph unicode="&#xe905;" glyph-name="chose" d="M518.827 929.28c-266.24 0-481.28-215.040-481.28-481.28s215.040-481.28 481.28-481.28c266.24 0 481.28 215.040 481.28 481.28-3.413 266.24-215.040 481.28-481.28 481.28v0 0zM815.787 598.187l-344.747-358.4c0 0-23.893-13.653-34.133 3.413l-191.147 187.733c-6.827 3.413-3.413 10.24 3.413 17.067l23.893 27.307c6.827 6.827 17.067 6.827 20.48 3.413l160.427-157.013 314.027 324.267c3.413 6.827 10.24 3.413 17.067-3.413l27.307-23.893c6.827-6.827 10.24-13.653 3.413-20.48v0 0z" />
<glyph unicode="&#xe906;" glyph-name="econtrol-arrow" d="M766.969 739.18l36.204-36.204-546.118-546.118-36.204 36.204 546.118 546.118zM810.667 379.733h-51.2v315.733h-315.733v51.2h341.333l25.6-25.6z" />
<glyph unicode="&#xe907;" glyph-name="econtrol-auto" d="M574.191 99.43l-48.879 7.714-33.621 320.546-320.307 30.857-7.953 48.845 676.215 302.182 33.826-33.724-299.281-676.42zM272.828 500.19l244.634-23.586 23.006-22.801 25.771-245.828 233.472 527.667-526.882-235.452z" />
<glyph unicode="&#xe908;" glyph-name="econtrol-box" d="M836.267 184.969h-648.533c-13.312 0-24.098 10.786-24.098 24.098v477.867c0 13.312 10.786 24.098 24.098 24.098h648.533c13.312 0 24.098-10.786 24.098-24.098v-477.867c0-13.312-10.786-24.098-24.098-24.098zM211.831 233.165h600.337v429.67h-600.337v-429.67z" />
<glyph unicode="&#xe909;" glyph-name="econtrol-circle" d="M512 149.333c-211.729 0-384 133.973-384 298.667s172.271 298.667 384 298.667 384-133.973 384-298.667c0-164.693-172.271-298.667-384-298.667zM512 695.467c-183.501 0-332.8-111.002-332.8-247.467s149.299-247.467 332.8-247.467 332.8 111.002 332.8 247.467c0 136.465-149.299 247.467-332.8 247.467z" />
<glyph unicode="&#xe90a;" glyph-name="econtrol-close" d="M223.3 159.334c-13.722 13.722-18.5 19.524-18.5 22.323 0 2.935 27.75 31.471 131.277 135.066l131.243 131.277-131.277 131.277c-115.78 115.78-131.243 131.789-131.243 135.851 0.068 3.789 2.731 6.929 18.364 21.129 13.483 12.186 19.558 16.725 22.938 17.135 4.267 0.478 13.687-8.602 135.236-130.15l130.628-130.662 131.311 131.345c104.38 104.346 132.062 131.277 135.066 131.277 5.393 0 40.858-35.465 40.858-40.858 0-3.004-27.75-31.539-131.277-135.066l-131.243-131.277 131.277-131.277c116.122-116.258 131.243-131.857 131.243-135.851 0-3.925-2.628-6.929-18.364-21.197-13.517-12.254-19.558-16.725-22.938-17.135-4.335-0.41-13.312 8.192-135.27 130.15l-130.662 130.628-131.277-131.277c-104.346-104.38-132.062-131.243-135.066-131.243-2.901 0-8.465 4.676-22.323 18.534v0 0z" />
<glyph unicode="&#xe90b;" glyph-name="econtrol-delete" d="M434.517 789.333h157.559c14.336 0 35.157-0.99 37.001-15.531 2.389-18.603 2.389-4.267 2.389-18.603v-68.267h170.667v-68.267h-580.267v68.267h170.667v34.133c0 14.336-5.325 42.462 4.983 52.736 10.308 10.342 22.699 15.531 37.001 15.531v0 0zM426.667 755.2v-68.267h170.667v68.267h-170.667zM768 174.933c0-14.336-21.197-42.462-31.505-52.804-10.377-10.342-22.426-15.462-36.762-15.462h-370.244c-14.37 0-26.692 5.12-37.035 15.462s-36.454 38.468-36.454 52.804v409.6h512v-409.6zM324.267 550.4v-375.467h68.267v375.467h-68.267zM426.667 550.4v-375.467h68.267v375.467h-68.267zM529.067 550.4v-375.467h68.267v375.467h-68.267zM631.467 550.4v-375.467h68.267v375.467h-68.267z" />
<glyph unicode="&#xe90c;" glyph-name="econtrol-fold" d="M512.034 631.808c6.69 0 13.449-2.594 18.534-7.748l315.017-315.085c10.308-10.274 10.308-26.829 0-37.137-10.274-10.274-26.863-10.274-37.069 0l-296.516 296.55-296.516-296.516c-10.274-10.274-26.863-10.274-37.137 0s-10.274 26.863 0 37.137l315.051 315.085c5.154 5.12 11.913 7.714 18.637 7.714v0z" />
<glyph unicode="&#xe90d;" glyph-name="econtrol-line" d="M400.145 115.2v51.2c279.825 0 304.401 46.592 306.517 55.945 8.090 36.352-104.619 116.429-215.006 168.38-160.734 75.025-234.394 145.988-225.041 216.951 15.701 119.262 270.746 167.629 299.759 172.783l8.909-50.449c-80.486-14.234-249.412-64.546-257.911-129.024-3.345-25.498 17.681-80.657 196.028-163.874 62.396-29.355 264.158-132.335 243.234-225.894-14.882-66.423-124.791-96.017-356.489-96.017z" />
<glyph unicode="&#xe90e;" glyph-name="econtrol-plans" d="M173.227 686.933h682.667v-68.267h-682.667v68.267zM173.227 482.133h682.667v-68.267h-682.667v68.267zM173.227 277.333h682.667v-68.267h-682.667v68.267z" />
<glyph unicode="&#xe90f;" glyph-name="econtrol-point" d="M511.966 106.667c0 0-247.125 295.663-247.125 427.657 0 140.595 110.865 255.010 247.125 255.010 136.294 0 247.194-114.415 247.194-255.010 0-131.994-247.194-427.657-247.194-427.657v0zM511.966 743.014c-111.479 0-202.206-93.662-202.206-208.657 0-125.679 202.206-363.281 202.206-363.281s202.24 237.602 202.24 363.281c0 114.961-90.726 208.657-202.24 208.657v0zM511.966 418.406c-70.212 0-127.317 58.948-127.317 131.345 0 72.465 57.139 131.413 127.317 131.413 70.246 0 127.283-58.948 127.283-131.413 0.034-72.431-57.037-131.345-127.283-131.345v0zM511.966 634.812c-45.397 0-82.364-38.127-82.364-85.060 0-46.865 36.966-84.992 82.364-84.992 45.431 0 82.398 38.127 82.398 84.992 0 46.899-36.966 85.060-82.398 85.060v0z" />
<glyph unicode="&#xe910;" glyph-name="econtrol-polygon" d="M278.699 122.129c-22.187 65.707-7.782 110.865 13.756 138.103-12.254 3.721-24.576 9.523-36.796 17.681l-3.891 3.174c-1.809 1.809-42.837 43.52-30.925 91.614-6.724 5.734-50.551 45.807-48.572 112.265 2.116 69.632 52.907 140.459 151.006 210.534 3.959 2.628 329.148 215.484 512.41-4.437l3.857-6.315c1.399-3.277 33.894-81.306-12.902-165.615-48.777-87.893-162.475-146.876-338.057-175.411-23.006-27.989-60.314-61.372-103.765-78.199-10.001-7.578-21.197-15.019-33.519-22.426-7.612-3.721-50.483-26.59-24.132-104.55l-48.469-16.418zM286.379 319.010c25.088-15.701 50.688-15.599 74.103-7.919 24.883 20.002 38.468 39.595 37.854 56.183-0.717 19.217-20.412 34.679-30.993 41.609-77.858-14.438-93.355-37.513-96.393-47.002-5.052-15.804 9.114-35.703 15.428-42.871zM368.060 460.971l15.667-2.355c2.492-1.263 58.539-29.867 65.195-82.261 3.311 3.857 5.154 6.315 5.257 6.451l16.589 9.933c162.509 24.986 270.063 77.278 311.091 151.211 30.14 54.306 16.179 104.721 11.776 117.521-154.453 179.166-438.443-6.246-441.31-8.124-82.5-58.948-127.317-117.897-128.887-169.95-1.024-33.997 16.964-57.583 25.737-67.004 24.576 20.719 63.932 35.43 118.886 44.578z" />
<glyph unicode="&#xe911;" glyph-name="econtrol-polyline" d="M833.809 722.91l-47.343 47.002c-26.146 25.873-68.471 25.873-94.583 0l-47.377-47.002c-23.484-23.279-6.895-56.388 11.844-82.33l-337.92-337.92c-25.941 18.876-58.027 36.318-81.34 12.8l-47.002-47.275c-25.941-26.112-25.907-68.471 0-94.652l47.002-47.275c25.907-26.078 67.994-26.078 93.867 0l47.002 47.275c22.938 23.074 12.834 56.73-11.298 80.862l341.094 341.675c20.002-39.595 55.637-36.932 78.711-14.131l47.343 47.070c26.044 25.839 26.044 68.028 0 93.901v0zM284.774 152.883l-67.789 67.925 67.789 67.789 67.823-67.789-67.823-67.925zM739.226 607.3l-67.857 67.925 67.823 67.721 67.789-67.721-67.755-67.925z" />
<glyph unicode="&#xe912;" glyph-name="econtrol-save" d="M716.766 789.333h-34.099v-273.067h-341.333v273.067h-170.667v-682.667h682.667v546.065l-136.567 136.602zM716.8 140.8h-477.867v341.333h477.867l0.99-315.051-0.99-26.283zM273.067 379.733h375.467v34.133h-375.467v-34.133zM273.067 277.333h375.467v34.133h-375.467v-34.133zM273.067 174.933h375.467v34.133h-375.467v-34.133zM580.267 789.333h-68.267v-238.933h68.267v238.933z" />
<glyph unicode="&#xe913;" glyph-name="econtrol-text" d="M761.481 130.867l-249.481 592.486-249.481-592.486-47.172 19.866 273.067 648.533h47.172l273.067-648.533zM341.333 405.333h341.333v-51.2h-341.333v51.2z" />
<glyph unicode="&#xe914;" glyph-name="econtrol-undo" d="M712.294 123.733c85.538 130.458 99.908 329.455-236.1 322.867v-160.734l-288.734 243.132 288.768 243.268v-157.252c402.364 8.772 447.181-299.145 236.066-491.281v0 0z" />
<glyph unicode="&#xe915;" glyph-name="econtrol-unfold" d="M512.034 264.192c6.69 0 13.449 2.594 18.534 7.748l315.017 315.085c10.308 10.274 10.308 26.795 0 37.069-10.274 10.274-26.863 10.274-37.069 0l-296.516-296.482-296.516 296.482c-10.274 10.274-26.863 10.274-37.137 0s-10.274-26.795 0-37.069l315.051-315.085c5.154-5.154 11.913-7.748 18.637-7.748v0z" />
<glyph unicode="&#xe916;" glyph-name="globalSearch-search" d="M1002.496 50.496l-267.328 267.776c47.744 66.88 76.352 148.224 76.352 234.368 0 224.768-181.376 406.464-405.76 406.464s-405.76-181.76-405.76-406.464 181.44-406.528 405.824-406.528c85.888 0 167.040 28.736 233.92 76.608l267.328-267.904c23.872-23.936 66.88-23.936 95.424 0 28.672 28.672 28.672 67.008 0 95.68v0zM405.824 241.728c-171.904 0-310.336 138.624-310.336 310.848 0 172.16 138.432 310.784 310.336 310.784 171.84 0 310.272-138.688 310.272-310.784-0.064-172.224-138.496-310.848-310.272-310.848v0z" />
<glyph unicode="&#xe917;" glyph-name="location" d="M512 960c-212.062 0-384-171.938-384-384s384-640 384-640 384 427.938 384 640-171.938 384-384 384zM512 320c-141.376 0-256 114.624-256 256s114.624 256 256 256 256-114.624 256-256-114.624-256-256-256z" />
<glyph unicode="&#xe918;" glyph-name="location-arrow" d="M487.772 40.889c24.431-73.427 70.769-76.015 103.454-6.018l371.613 796.217c32.686 70.138 2.381 100.375-67.689 67.689l-796.281-371.533c-70.068-32.686-67.409-79.025 5.95-103.526l287.199-95.685 95.757-287.129z" />
<glyph unicode="&#xe919;" glyph-name="next" d="M316.314 79.633v0 0c12.186-12.322 32.051-12.39 44.476-0.137l346.761 343.62c6.178 6.144 9.25 14.268 9.25 22.323 0 7.919-3.004 15.974-9.079 22.050-0.137 0.137-0.273 0.205-0.41 0.307-0.546 0.546-0.683 1.229-1.195 1.775l-343.586 346.795c-12.186 12.288-32.119 12.425-44.476 0.171-12.288-12.254-12.39-32.085-0.205-44.407l323.345-326.281-324.676-321.809c-12.322-12.22-12.39-32.085-0.205-44.407z" />
<glyph unicode="&#xe91a;" glyph-name="place" d="M807.567 616.53c0 155.75-140.882 282.030-297.492 282.030s-293.642-126.28-293.642-282.030c0-144.445 290.365-490.271 290.365-490.271s300.769 340.992 300.769 490.271v0zM416.481 606.536c0 53.309 44.155 96.543 98.57 96.543 54.456 0 98.55-43.172 98.55-96.543s-44.155-96.543-98.55-96.543c-54.415 0.061-98.57 43.254-98.57 96.543v0zM609.403 117.821c0.84-2.519 1.29-5.161 1.29-7.741 0-26.644-44.155-48.251-98.55-48.251s-98.55 21.627-98.55 48.251c0 2.662 0.43 5.222 1.29 7.741-59.679-11.080-99.84-32.010-99.84-55.992 0-35.594 88.269-64.389 197.1-64.389s197.079 28.774 197.079 64.389c-0.061 23.982-40.223 44.913-99.82 55.992v0zM609.403 117.821v0z" />
<glyph unicode="&#xe91b;" d="M549.184 864l45.568-46.272 45.248-45.248v-548.48h-512v640h421.184zM576 928h-512v-768h640v638.976l-64 64-64 65.024z" />
<glyph unicode="&#xe91c;" d="M352 0v704h467.648l53.568-54.464 54.784-54.784v-594.752z" />
<glyph unicode="&#xe91d;" d="M806.208 672l44.544-45.248 45.248-45.248v-549.504h-512v640h422.208zM833.024 736h-513.024v-768h640v640l-64 64-62.976 64z" />
<glyph unicode="&#xe91e;" d="M448 544h384v-64h-384v64z" />
<glyph unicode="&#xe91f;" d="M448 352h384v-64h-384v64z" />
<glyph unicode="&#xe920;" d="M448 160h384v-64h-384v64z" />
<glyph unicode="&#xe921;" glyph-name="prev" d="M707.686 79.633c12.186 12.322 12.117 32.188-0.205 44.407l-324.71 321.809 323.379 326.281c12.186 12.322 12.083 32.154-0.205 44.407-12.322 12.254-32.256 12.117-44.476-0.171l-343.586-346.795c-0.546-0.546-0.683-1.229-1.161-1.775-0.137-0.102-0.307-0.171-0.444-0.307-6.042-6.076-9.079-14.097-9.079-22.050 0-8.055 3.072-16.213 9.25-22.323l346.761-343.62c12.425-12.254 32.29-12.186 44.476 0.137v0 0z" />
<glyph unicode="&#xe922;" glyph-name="qpe-monitor" d="M142.49 218.982c0-112.435 92.416-203.827 207.002-203.827 114.125 0 206.95 91.392 206.95 203.827 0 112.486-206.95 407.706-206.95 407.706s-207.002-295.168-207.002-407.706v0zM660.122 480.666c89.702 0 162.406 69.581 162.406 155.546 0 86.067-162.406 310.477-162.406 310.477s-162.304-225.024-162.304-310.477c-0.717-86.067 72.090-155.546 162.304-155.546v0zM763.085 276.787c0 0-118.374-168.909-118.374-233.011 0-64.307 53.197-116.275 118.374-116.275 65.382 0 118.426 52.019 118.426 116.275 0 64.819-118.426 233.011-118.426 233.011v0z" />
<glyph unicode="&#xe923;" glyph-name="radar-monitor" d="M803.584 388.71v379.238h-386.406l-113.766 109.056c0 0-298.65-301.005 0-599.654 298.65-298.701 613.837 0 613.837 0l-113.664 111.36zM265.523 381.645c-146.893 258.355 37.888 438.477 37.888 438.477l35.584-33.229c0 0-139.827-142.131-73.472-405.248v0zM741.888 447.949l-260.71 253.696h260.71v-253.696zM106.701-7.117c0 94.822 120.883-9.83 120.883 151.706 0 91.75 139.827 88.576 139.827 0 0-151.706 130.355-66.406 130.355-151.706h-391.066z" />
<glyph unicode="&#xe924;" glyph-name="rain-monitor" d="M952.525 471.296c-0.717 76.595-49.971 144.23-122.624 168.704 9.882 102.298-51.712 197.888-148.89 231.014-97.331 33.024-204.493-5.171-258.97-92.262-45.722 30.413-104.653 33.485-153.498 7.731-48.794-25.446-79.77-75.571-80.845-130.56 0-8.858 0.819-17.613 2.458-26.214-71.117-24.934-118.528-91.955-118.682-167.168 0.512-46.95 20.326-91.494 54.579-123.597 34.304-32 80.23-48.64 127.078-45.875h517.786c99.379-0.973 180.685 78.848 181.606 178.227v0zM351.795 96.205c0.922-27.802 23.654-49.92 51.354-49.92 27.75 0 50.483 22.118 51.354 49.92 18.534 26.112 14.592 62.157-9.37 83.712-23.91 21.402-60.109 21.402-84.019 0-23.91-21.555-27.955-57.6-9.318-83.712v0zM791.962 96.205c0.768-27.802 23.501-49.92 51.251-49.92 27.802 0 50.534 22.118 51.302 49.92 18.637 26.112 14.746 62.157-9.216 83.712-23.962 21.402-60.211 21.402-84.224 0-23.757-21.555-27.75-57.6-9.114-83.712v0zM118.989 114.125c0.819-27.699 23.501-49.818 51.302-49.818 27.75 0 50.432 22.118 51.251 49.818 18.688 26.163 14.746 62.208-9.216 83.61s-60.211 21.402-84.173 0c-23.859-21.555-27.904-57.549-9.165-83.61v0zM559.053 114.125c0.87-27.699 23.552-49.818 51.302-49.818 27.699 0 50.432 22.118 51.302 49.818 18.688 26.163 14.643 62.208-9.318 83.61s-60.16 21.402-84.173 0c-23.859-21.555-27.75-57.549-9.114-83.61v0z" />
<glyph unicode="&#xe925;" glyph-name="sysTip-error" d="M512 960c-283.307 0-512-228.693-512-512s228.693-512 512-512c283.307 0 512 228.693 512 512s-228.693 512-512 512v0zM699.733 294.4c13.653-13.653 13.653-37.547 0-54.613-17.067-13.653-40.96-17.067-54.613 0l-133.12 136.533-133.12-133.12c-13.653-13.653-37.547-13.653-54.613 0s-17.067 40.96 0 54.613l133.12 136.533-133.12 136.533c-13.653 13.653-13.653 37.547 0 54.613 17.067 13.653 40.96 17.067 54.613 0l133.12-133.12 133.12 133.12c13.653 13.653 37.547 13.653 54.613 0 13.653-13.653 17.067-40.96 0-54.613l-133.12-136.533 133.12-139.947z" />
<glyph unicode="&#xe926;" glyph-name="sysTip-info" d="M512 960c-283.307 0-512-228.693-512-512s228.693-512 512-512 512 228.693 512 512-228.693 512-512 512zM563.2 198.827c0-27.307-23.893-51.2-51.2-51.2s-51.2 23.893-51.2 51.2v307.2c0 27.307 23.893 51.2 51.2 51.2s51.2-23.893 51.2-51.2v-307.2zM512 645.973c-28.297 0-51.2 22.938-51.2 51.2 0 28.297 22.903 51.2 51.2 51.2 28.262 0 51.2-22.903 51.2-51.2 0-28.262-22.938-51.2-51.2-51.2z" />
<glyph unicode="&#xe927;" glyph-name="sysTip-warning" d="M512 960c-283.307 0-512-228.693-512-512s228.693-512 512-512 512 228.693 512 512-228.693 512-512 512zM508.587 178.347c-28.262 0-51.2 22.938-51.2 51.2s22.938 51.2 51.2 51.2c28.297 0 51.2-22.938 51.2-51.2s-22.903-51.2-51.2-51.2zM559.787 417.28c0-27.307-23.893-51.2-51.2-51.2s-51.2 23.893-51.2 51.2v307.2c0 27.307 23.893 51.2 51.2 51.2s51.2-20.48 51.2-51.2v-307.2z" />
<glyph unicode="&#xe929;" glyph-name="sysTip-loading" d="M552.96 806.4c0-40.96-17.067-81.92-47.787-109.227-30.72-30.72-71.68-44.373-112.64-44.373-88.747 0-160.427 68.267-160.427 153.6s71.68 153.6 160.427 153.6c44.373 0 85.333-17.067 112.64-44.373 30.72-30.72 47.787-68.267 47.787-109.227v0zM273.067 502.613c0-34.133-13.653-68.267-40.96-92.16s-61.44-37.547-95.573-37.547c-75.093 0-136.533 58.027-136.533 133.12 0 71.68 61.44 133.12 136.533 133.12 37.547 0 71.68-13.653 95.573-37.547 27.307-30.72 40.96-64.853 40.96-98.987v0zM372.053 161.28c0-68.267-58.027-122.88-126.293-122.88s-126.293 54.613-126.293 122.88c0 68.267 58.027 122.88 126.293 122.88 71.68-3.413 126.293-58.027 126.293-122.88v0zM669.013 38.4c0-27.307-10.24-54.613-30.72-71.68-20.48-20.48-47.787-30.72-75.093-30.72-58.027 0-105.813 47.787-105.813 102.4 0 58.027 47.787 102.4 105.813 102.4 27.307 0 54.613-10.24 75.093-30.72 20.48-17.067 30.72-44.373 30.72-71.68v0zM921.6 161.28c0-30.72-17.067-61.44-44.373-78.507s-64.853-17.067-92.16 0c-27.307 17.067-47.787 47.787-44.373 78.507 0 47.787 40.96 88.747 92.16 88.747 47.787-3.413 88.747-40.96 88.747-88.747v0zM1024 383.147c0-27.307-13.653-51.2-37.547-64.853s-54.613-13.653-78.507 0c-23.893 13.653-37.547 37.547-37.547 64.853 0 40.96 34.133 75.093 78.507 75.093 40.96 0 75.093-34.133 75.093-75.093v0zM976.213 598.187c0-30.72-23.893-54.613-58.027-54.613s-58.027 23.893-58.027 54.613c0 30.72 27.307 54.613 58.027 54.613s58.027-23.893 58.027-54.613v0zM832.853 748.373c0-23.893-20.48-40.96-44.373-40.96s-44.373 20.48-44.373 40.96c0 23.893 20.48 40.96 44.373 40.96 23.893 3.413 44.373-17.067 44.373-40.96v0z" />
<glyph unicode="&#xe92a;" glyph-name="sysTip-success" d="M512 960c-283.307 0-512-228.693-512-512s228.693-512 512-512 512 228.693 512 512c0 283.307-228.693 512-512 512v0zM409.6 239.787l-184.32 180.907 34.133 47.787 153.6-109.227 358.4 293.547 30.72-23.893-392.533-389.12z" />
<glyph unicode="&#xe92e;" glyph-name="thunder-monitor" d="M613.478 952.73l-304.384-71.168-116.173-540.467 304.64 42.752-58.010-455.168 391.526 696.883-377.088-56.832z" />
<glyph unicode="&#xe92f;" glyph-name="toolsbar-about" d="M536.948 148.015c-33.373 0-65.955 9.728-97.513 14.289-127.348-162.583-328.332-130.653-328.332-130.653 141.964 67.817 139.031 180.224 113.85 195.165-111.43 66.095-178.409 166.772-178.409 279.552 0 199.075 216.669 360.541 490.403 360.541 273.687 0 440.506-161.466 440.506-360.541s-166.819-358.353-440.506-358.353zM294.214 587.45c-48.128 0-87.18-39.471-87.18-88.111s39.052-88.111 87.18-88.111c48.175 0 87.18 39.471 87.18 88.111s-39.005 88.111-87.18 88.111zM512.326 587.45c-48.175 0-87.273-39.471-87.273-88.111s39.098-88.111 87.273-88.111c48.081 0 87.18 39.471 87.18 88.111s-39.098 88.111-87.18 88.111zM730.252 587.45c-48.175 0-87.273-39.471-87.273-88.111s39.098-88.111 87.273-88.111 87.18 39.471 87.18 88.111-38.959 88.111-87.18 88.111z" />
<glyph unicode="&#xe930;" glyph-name="toolsbar-atwill" d="M873.318 676.096l88.525 88.627c19.866 19.866 11.93 60.058-17.766 89.754s-69.888 37.632-89.805 17.818l-88.576-88.627 107.622-107.571zM819.18 627.151l-307.187-307.187-102.384 102.384 307.187 307.187 102.384-102.384zM512 320l-153.6-51.2 51.2 153.6zM716.8 365.875v-125.491c0-50.33-23.706-73.984-73.882-73.984h-364.186c-50.227 0-73.933 23.654-73.933 73.984v364.032c0 50.33 23.706 73.984 73.933 73.984h261.99l133.376 150.426c-10.291 1.434-20.48 3.174-31.181 3.174h-364.186c-125.44 0-227.533-102.042-227.533-227.584v-364.032c0-125.542 102.093-227.584 227.533-227.584h364.083c125.44 0 227.533 102.042 227.533 227.584v261.99l-153.549-136.499z" />
<glyph unicode="&#xe931;" glyph-name="toolsbar-bigScreen" d="M46.545 261.818h930.909v605.091h-930.909v-605.091zM930.909 308.364h-837.818v512h837.818v-512zM605.091 122.182v93.091h-186.182v-139.636h-372.364v-46.545h930.909v46.545h-372.364v46.545z" />
<glyph unicode="&#xe932;" glyph-name="toolsbar-boxSelect" d="M46.545 913.455h930.909v-46.545h-930.909v46.545zM46.545 866.909h46.545v-884.364h-46.545v884.364zM46.545 29.091h465.455v-46.545h-465.455v46.545zM930.909 866.909h46.545v-465.455h-46.545v465.455zM465.455 308.364h186.182v-139.636h-186.182v139.636zM651.636 494.545h139.636v-186.182h-139.636v186.182zM787.456-16.012l-135.82-1.443v186.182h139.636zM791.273 308.364h186.182v-139.636h-186.182v139.636z" />
<glyph unicode="&#xe933;" glyph-name="toolsbar-cover" d="M930.909 634.182v-605.091h-605.091v605.091h605.091zM977.455 680.727h-698.182v-698.182h698.182v698.182zM698.182 866.909v-186.182h-418.909v-418.909h-186.182v605.091h605.091zM744.727 913.455h-698.182v-698.182h279.273v418.909h418.909v279.273zM928.207 663.144l34.531-34.717-625.694-622.34-34.531 34.717 625.694 622.34zM941.022 491.368l34.78-34.462-470.218-474.561-34.78 34.462 470.218 474.561zM928.754 284.125l34.898-34.35-263.009-267.208-34.898 34.35 263.009 267.208zM724.656 676.188l34.78-34.462-435.134-439.152-34.78 34.462 435.134 439.152zM555.681 682.151l34.443-34.805-260.574-257.861-34.443 34.805 260.574 257.861z" />
<glyph unicode="&#xe934;" glyph-name="toolsbar-dataMonitor" d="M662.784 672.717c0-33.946-27.597-61.44-61.491-61.44h-184.269c-33.894 0-61.389 27.494-61.389 61.44v122.88c0 33.894 27.494 61.389 61.389 61.389h184.269c33.894 0 61.491-27.494 61.491-61.389v-122.88zM323.226 90.982c0-28.314-22.886-51.2-51.2-51.2h-153.6c-28.314 0-51.2 22.886-51.2 51.2v102.4c0 28.314 22.886 51.2 51.2 51.2h153.6c28.314 0 51.2-22.886 51.2-51.2v-102.4zM637.184 90.214c0-28.314-22.886-51.2-51.302-51.2h-153.446c-28.314 0-51.2 22.886-51.2 51.2v102.349c0 28.365 22.886 51.2 51.2 51.2h153.498c28.467 0 51.302-22.835 51.302-51.2v-102.349h-0.051zM956.826 90.982c0-28.314-22.835-51.2-51.2-51.2h-153.6c-28.314 0-51.2 22.886-51.2 51.2v102.4c0 28.314 22.886 51.2 51.2 51.2h153.6c28.365 0 51.2-22.886 51.2-51.2v-102.4zM458.035 659.968h102.4v-428.186h-102.4v428.186zM880.026 182.989h-102.4v221.082l-536.678-1.587 1.587-219.494h-102.4v221.082c0 55.552 45.21 100.762 100.813 100.762h538.266c55.603 0 100.813-45.21 100.813-100.762v-221.082z" />
<glyph unicode="&#xe935;" glyph-name="toolsbar-decisionServe" d="M102.4 883.2h102.4v-870.4h-102.4v870.4zM256 732.672c0 0 182.016 176.947 375.45 66.355 0 0 145.050-116.89 290.15 60.006v-431.206c0 0-96.717-225.946-314.317-74.342 0 0-182.067 126.464-351.283-25.139v404.326z" />
<glyph unicode="&#xe936;" glyph-name="toolsbar-disaster" d="M897.862 345.6h-257.21v51.2l188.276-2.188c38.4 6.377 119.343 22.9 121.996 105.379 1.583 50.409-97.28 113.571-155.974 101.609 0 102.4-51.386 168.82-205.731 153.6-22.295 80.756-58.275 152.017-156.765 152.017-102.912 0-213.644-68.794-213.644-186.135 0-0.512 9.449-68.608 9.449-69.073-93.184 31.185-149.457-39.191-153.46-101.609-7.354-114.502 40.262-135.68 102.865-153.6h205.777v-51.2h-257.257c-77.545 22.388-104.448 115.991-102.865 204.8 1.908 104.401 91.648 149.597 153.553 154.391-31.418 186.415 127.674 255.209 257.955 255.209 108.497 0 178.269-52.596 205.824-153.6 13.731 2.932 205.731 0.791 205.731-153.6 74.007-3.212 154.345-89.135 154.345-153.6 0-75.404-57.856-155.183-102.865-153.6zM259.258 328.564c0 0 8.751-173.521-33.652-238.964-44.544-68.655-229.609-27.415-134.842 102.4 63.395 86.9 159.511 124.509 168.495 136.564zM486.307 396.8h102.912l-101.283-153.6h152.716l-257.21-307.2 154.298 256h-151.412l99.98 204.8z" />
<glyph unicode="&#xe937;" glyph-name="toolsbar-distance" d="M368.175 543.884l119.855-119.808 47.988 47.895-119.901 119.855-47.942-47.942zM967.54 615.796l-287.744 287.744c-13.265 13.219-34.723 13.219-47.942 0l-575.395-575.348c-13.219-13.265-13.219-34.723 0-47.988l287.744-287.697c13.265-13.219 34.723-13.219 47.988 0l575.348 575.348c13.172 13.219 13.172 34.676 0 47.942v0zM871.657 567.855l-479.465-479.511c-13.265-13.172-34.723-13.172-47.988 0l-191.814 191.814c-13.172 13.172-13.172 34.723 0 47.942l24.017 23.971 119.901-119.808 47.895 47.895-119.855 119.948 47.942 47.895 95.93-95.93 47.942 47.988-95.93 95.884 143.872 143.825 95.884-95.93 47.895 47.942-95.884 95.93 47.849 47.942 119.901-119.901 47.942 47.942-119.761 119.901 24.017 24.017c13.172 13.265 34.723 13.265 47.895 0l191.814-191.814c13.219-13.265 13.219-34.676 0-47.942v0z" />
<glyph unicode="&#xe938;" glyph-name="toolsbar-econtrol" d="M102.4 908.8v-921.6h819.2l-1.075 921.6h-818.125zM819.2 89.6h-614.4v665.6h614.4v-665.6zM256 652.8h51.2v-51.2h-51.2v51.2zM358.4 652.8h409.6v-51.2h-409.6v51.2zM256 448h51.2v-51.2h-51.2v51.2zM358.4 448h409.6v-51.2h-409.6v51.2zM256 243.2h51.2v-51.2h-51.2v51.2zM358.4 243.2h409.6v-51.2h-409.6v51.2z" />
<glyph unicode="&#xe939;" glyph-name="toolsbar-emergencyLib" d="M238.285 592.538c72.96-30.413 170.189-47.053 273.715-47.053 211.712 0 384 69.99 384 156.058s-172.288 156.058-384 156.058c-211.814 0-384-69.99-384-156.058 0-40.704 39.168-79.411 110.285-109.005v0zM512 487.526c-179.354 0-337.152 51.661-384 124.16v-79.206c0-86.067 172.186-156.058 384-156.058 211.712 0 384 69.99 384 156.058v79.206c-46.899-72.499-204.646-124.16-384-124.16v0zM512 318.515c-179.354 0-337.152 51.712-384 124.211v-79.206c0-86.118 172.186-156.109 384-156.109 211.712 0 384 69.99 384 156.109v79.206c-46.899-72.602-204.646-124.211-384-124.211v0zM512 149.504c-179.354 0-337.152 51.61-384 124.109v-79.206c0-86.067 172.186-156.006 384-156.006 211.712 0 384 69.939 384 156.006v79.206c-46.899-72.499-204.646-124.109-384-124.109v0z" />
<glyph unicode="&#xe93a;" glyph-name="toolsbar-exit" d="M897.955 565.667c-21.085 49.99-51.34 94.906-89.74 133.446-38.447 38.54-83.27 68.841-133.167 89.972-12.521 5.26-25.088 9.914-37.935 13.964-0.093-18.385-0.372-36.771 0.186-55.11 140.8-51.433 241.617-186.973 241.617-345.553 0-202.799-164.538-367.663-366.918-367.663-202.333 0-366.918 164.864-366.918 367.663 0 157.696 99.654 292.585 239.104 344.623v55.11c-11.823-3.817-23.645-8.145-35.235-13.079-49.943-21.132-94.673-51.386-133.167-89.926-38.447-38.586-68.608-83.456-89.786-133.446-21.83-51.759-32.908-106.775-32.908-163.281 0-56.785 11.078-111.709 32.908-163.514 21.085-49.943 51.34-94.86 89.786-133.399 38.493-38.447 83.223-68.841 133.167-90.019 51.665-21.83 106.496-32.908 163.049-32.908s111.383 11.078 163.049 32.908c49.943 21.178 94.72 51.433 133.167 90.019 38.4 38.54 68.655 83.456 89.74 133.399 21.83 51.759 32.954 106.729 32.954 163.514 0 56.506-11.124 111.523-32.954 163.281v0zM465.455 913.455h93.091v-466.432h-93.091z" />
<glyph unicode="&#xe93b;" glyph-name="toolsbar-globalSearch" d="M433.101 883.2c-196.813 0-356.301-159.488-356.301-356.25 0-196.813 159.488-356.301 356.301-356.301 196.762 0 356.301 159.488 356.301 356.301 0 196.762-159.539 356.25-356.301 356.25zM433.101 304.179c-122.982 0-222.72 99.686-222.72 222.72 0 122.982 99.686 222.669 222.72 222.669 122.88 0 222.72-99.686 222.72-222.669s-99.84-222.72-222.72-222.72zM933.222 135.475c17.101-17.203 18.79-43.264 3.789-58.266l-54.323-54.374c-15.002-15.002-41.114-13.312-58.214 3.891l-201.728 201.677c-17.152 17.101-18.893 43.213-3.891 58.214l54.374 54.323c15.002 15.053 41.114 13.363 58.266-3.84l201.728-201.626z" />
<glyph unicode="&#xe93c;" glyph-name="toolsbar-gridRain" d="M523.52 934.4c-23.040-185.293-344.32-451.43-344.32-636.979 0-185.498 148.992-335.821 332.8-335.821s332.8 150.323 332.8 335.821c0 185.549-275.405 474.88-321.28 636.979zM431.667 123.699c-275.405 115.814-45.926 370.586-45.926 370.586-68.813-231.578 45.926-301.056 45.926-301.056 68.813-46.336 0-69.53 0-69.53z" />
<glyph unicode="&#xe93d;" glyph-name="toolsbar-historyCase" d="M102.4 857.6v-614.4h614.4v614.4h-614.4zM529.050 538.112c-9.933-6.4-179.558-106.65-190.925-113.766-8.499-5.018-30.925 0.666-30.925 12.032v227.584c0 9.984 21.709 18.534 31.59 12.134 7.885-5.018 170.906-105.267 184.422-113.818 8.499-4.966 14.336-18.483 5.837-24.166zM870.4 652.8v-563.2h-563.2v-51.2h614.4v614.4zM768 755.2v-563.2h-563.2v-51.2h614.4v614.4z" />
<glyph unicode="&#xe93e;" glyph-name="toolsbar-link" d="M863.795 817.869l-6.81 6.707c-43.315 43.366-100.71 65.331-157.491 65.28-56.781 0.051-114.176-21.914-157.491-65.28l-65.587-65.69c-26.982-26.88-26.982-70.554 0-97.434 26.778-26.88 70.451-26.88 97.382 0l65.69 65.69c16.794 16.742 38.093 24.832 60.006 24.883 22.016-0.051 43.418-8.141 60.006-24.883l6.912-6.81c16.691-16.691 24.781-38.042 24.781-59.904 0-22.118-8.192-43.418-24.883-60.211l-159.795-159.642c-16.691-16.794-38.093-24.832-60.621-24.986-21.402 0.102-42.598 8.141-59.392 24.986l-6.81 6.707-97.485-97.434 6.81-6.81c43.008-43.162 99.994-65.28 156.877-65.178h0.41c56.525 0 114.176 21.658 157.798 65.178l159.693 159.795c43.418 43.418 65.28 100.864 65.178 157.696 0.102 56.678-21.862 113.971-65.178 157.338v0zM453.478 237.722l-68.915-68.813c-16.691-16.794-38.195-24.781-60.621-24.883-21.504 0.102-42.701 8.090-59.494 24.883l-6.758 6.707c-16.691 16.794-24.781 38.144-24.883 60.314 0.102 21.862 8.192 43.11 24.883 59.802l159.795 159.795c16.794 16.64 38.093 24.73 60.109 24.832 21.914-0.051 43.213-8.192 60.006-24.934l6.81-6.758 97.382 97.536-6.707 6.81-12.288 12.288c-5.222 5.171-11.11 9.472-17.613 12.749-38.298 26.726-83.149 40.243-127.488 40.192-56.883 0.102-114.381-21.914-157.594-65.28l-159.898-159.744c-43.213-43.264-65.28-100.608-65.178-157.184-0.102-56.781 21.709-114.33 65.178-157.901l6.912-6.707c42.906-43.008 99.994-65.28 156.877-65.28h0.307c56.576 0 114.176 21.709 157.798 65.178l68.813 68.915c26.982 26.88 26.982 70.605 0 97.382-26.931 26.982-70.4 26.982-97.434 0.102v0z" />
<glyph unicode="&#xe93f;" glyph-name="toolsbar-lonlat" d="M23.273 727.273h977.455v-46.545h-977.455v46.545zM23.273 448h977.455v-46.545h-977.455v46.545zM23.273 168.727h977.455v-46.545h-977.455v46.545zM162.909 913.455h46.545v-930.909h-46.545v930.909zM488.727 913.455h46.545v-930.909h-46.545v930.909zM814.545 913.455h46.545v-930.909h-46.545v930.909z" />
<glyph unicode="&#xe940;" glyph-name="toolsbar-maptab" d="M977.455 448.372c0 256.931-208.384 465.129-465.455 465.129-257.024 0-465.455-208.244-465.455-465.129 0-237.289 177.804-433.059 407.552-461.498 12.986-2.746 28.719-4.375 47.523-4.375 5.26 0 10.38 0.279 15.267 0.884 254.836 2.42 460.567 209.687 460.567 464.989v0zM910.895 441.809c-1.35 23.18-4.468 45.894-9.076 68.003 0.419 7.866 0.559 15.313 0.372 22.295 5.725-26.95 8.797-55.017 8.797-83.735 0-2.188-0.093-4.375-0.093-6.563v0zM113.105 448.372c0 28.207 2.932 55.715 8.471 82.292 17.222-18.432 57.809-18.013 67.724 9.542 17.734-10.612 41.565-12.521 41.565-33.606 0-69.679 2.467-144.384 65.815-145.548 1.722 0 35.281-12.66 51.2-54.039 5.539-14.336 27.369 0 51.293 0 11.962 0 0-20.154 0-63.628 0-43.427 93.463-109.987 93.463-109.987-0.465-28.719 0.745-51.898 3.119-70.47-21.132 0.372-38.865-2.513-52.876-7.168-187.439 32.582-329.775 196.003-329.775 392.611v0zM610.164 61.859c-2.095 10.147-11.078 15.732-27.555 11.357 13.126 56.041 19.549 87.552 47.011 111.383 39.75 34.444 4.841 72.844-25.553 68.422-23.878-3.631-8.751 29.556-30.068 31.372-21.318 1.722-49.105 44.079-79.779 58.74-16.291 7.727-32.163 28.346-57.251 29.37-22.202 0.838-54.737-18.804-54.737-3.724 0 48.826-4.887 83.642-5.911 97.513-0.838 11.171-7.261 3.77 22.714 3.025 16.384-0.465 8.378 32.768 24.529 34.071 15.872 1.257 53.713-14.848 63.348-8.471 8.983 6.004 65.862-149.318 65.862-25.693 0 14.662-7.587 40.215 0 54.086 30.068 54.97 58.228 99.7 55.668 106.217-1.443 3.724-30.72 6.749-54.179-1.117-7.913-2.653 2.467-15.034-8.89-17.687-42.543-9.821-80.198 11.497-66.979 31.558 13.452 20.527 62.417 8.937 66.653 50.129 2.513 23.645 4.608 50.967 5.911 71.261 57.297-8.937 51.060 74.426-34.211 83.363 172.451-2.048 318.65-113.478 372.271-268.055-2.746 2.513-5.818 4.003-9.449 4.375-25.879 64.372-88.343 17.78-67.119-39.005-113.664-87.412-84.573-148.387-47.337-183.296 19.735-18.432 38.447-45.847 50.641-65.676-13.219-38.819 49.012-23.273 79.639 42.403-39.052-135.308-147.921-241.199-285.231-275.921v0z" />
<glyph unicode="&#xe941;" glyph-name="toolsbar-monitor" d="M662.784 672.717c0-33.946-27.597-61.44-61.491-61.44h-184.269c-33.894 0-61.389 27.494-61.389 61.44v122.88c0 33.894 27.494 61.389 61.389 61.389h184.269c33.894 0 61.491-27.494 61.491-61.389v-122.88zM323.226 90.982c0-28.314-22.886-51.2-51.2-51.2h-153.6c-28.314 0-51.2 22.886-51.2 51.2v102.4c0 28.314 22.886 51.2 51.2 51.2h153.6c28.314 0 51.2-22.886 51.2-51.2v-102.4zM637.184 90.214c0-28.314-22.886-51.2-51.302-51.2h-153.446c-28.314 0-51.2 22.886-51.2 51.2v102.349c0 28.365 22.886 51.2 51.2 51.2h153.498c28.467 0 51.302-22.835 51.302-51.2v-102.349h-0.051zM956.826 90.982c0-28.314-22.835-51.2-51.2-51.2h-153.6c-28.314 0-51.2 22.886-51.2 51.2v102.4c0 28.314 22.886 51.2 51.2 51.2h153.6c28.365 0 51.2-22.886 51.2-51.2v-102.4zM458.035 659.968h102.4v-428.186h-102.4v428.186zM880.026 182.989h-102.4v221.082l-536.678-1.587 1.587-219.494h-102.4v221.082c0 55.552 45.21 100.762 100.813 100.762h538.266c55.603 0 100.813-45.21 100.813-100.762v-221.082z" />
<glyph unicode="&#xe942;" glyph-name="toolsbar-navigation" d="M76.8 320h307.2v-307.2l256 256 307.2-204.8v819.2l-870.4-563.2zM433.92 169.011v178.483l468.634 468.736-468.634-647.219z" />
<glyph unicode="&#xe943;" glyph-name="toolsbar-opacity" d="M256 866.909c33.047 0 61.812-23.459 68.375-55.808l2.839-14.010-2.839-14.010c-6.563-32.349-35.328-55.808-68.375-55.808s-61.812 23.459-68.375 55.808l-2.839 14.010 2.839 14.010c6.563 32.349 35.328 55.808 68.375 55.808zM256 913.455c-56.273 0-103.238-39.983-113.99-93.091h-142.010v-46.545h142.010c10.752-53.108 57.716-93.091 113.99-93.091s103.238 39.983 113.99 93.091h654.010v46.545h-654.010c-10.752 53.108-57.716 93.091-113.99 93.091v0zM444.556 168.727c33.047 0 61.812-23.505 68.375-55.808l2.886-14.010-2.886-14.010c-6.609-32.303-35.328-55.808-68.375-55.808-33.094 0-61.859 23.459-68.422 55.808l-2.839 14.010 2.839 14.010c6.563 32.349 35.328 55.808 68.422 55.808zM444.556 215.273c-56.32 0-103.284-39.983-114.036-93.091h-330.519v-46.545h330.519c10.752-53.108 57.716-93.091 114.036-93.091 56.273 0 103.191 39.983 113.99 93.091h465.455v46.545h-465.455c-10.799 53.108-57.716 93.091-113.99 93.091v0zM723.828 541.091c33.047 0 61.812-23.459 68.468-55.855l2.839-13.964-2.839-13.964c-6.656-32.349-35.421-55.855-68.468-55.855-33.094 0-61.812 23.459-68.422 55.808l-2.839 14.010 2.932 14.010c6.516 32.349 35.235 55.808 68.329 55.808zM723.828 587.636c-56.32 0-103.284-39.983-113.99-93.091h-609.839v-46.545h609.839c10.705-53.108 57.67-93.091 113.99-93.091 56.273 0 103.191 39.983 113.99 93.091h186.182v46.545h-186.182c-10.799 53.108-57.716 93.091-113.99 93.091v0z" />
<glyph unicode="&#xe944;" glyph-name="toolsbar-otherTools" d="M332.8 693.76c0-8.448-9.574-15.36-21.35-15.36h-162.099c-11.776 0-21.35 6.912-21.35 15.36v122.931c0 8.448 9.574 15.309 21.35 15.309h162.099c11.776 0 21.35-6.861 21.35-15.309v-122.931zM896 703.949c0-14.029-9.216-25.549-20.378-25.549h-471.142c-11.315 0-20.48 11.52-20.48 25.6v102.502c0 14.131 9.165 25.498 20.48 25.498h471.040c11.315 0 20.429-11.366 20.429-25.498l0.051-102.554zM332.8 386.509c0-8.397-9.574-15.309-21.35-15.309h-162.099c-11.776 0-21.35 6.912-21.35 15.309v122.982c0 8.448 9.574 15.309 21.35 15.309h162.099c11.776 0 21.35-6.861 21.35-15.309v-122.982zM896 396.749c0-14.029-9.216-25.549-20.378-25.549h-471.142c-11.366 0-20.48 11.52-20.48 25.6v102.502c0 14.131 9.165 25.498 20.48 25.498h471.040c11.315 0 20.429-11.366 20.429-25.498l0.051-102.554zM332.8 79.309c0-8.397-9.574-15.309-21.35-15.309h-162.099c-11.776 0-21.35 6.912-21.35 15.309v122.982c0 8.448 9.574 15.309 21.35 15.309h162.099c11.776 0 21.35-6.861 21.35-15.309v-122.982zM896 89.549c0-14.029-9.216-25.549-20.378-25.549h-471.142c-11.366 0-20.48 11.52-20.48 25.6v102.502c0 14.080 9.165 25.498 20.48 25.498h471.040c11.315 0 20.429-11.418 20.429-25.498l0.051-102.554z" />
<glyph unicode="&#xe945;" glyph-name="toolsbar-suggestion" d="M844.474 866.909c47.663 0 86.435-43.38 86.435-96.675v-429.661c0-54.132-48.268-78.755-93.091-78.755h-372.364l-41.658-25.74-46.127-92.3-29.929-57.158-26.857 56.367-46.545 93.091-41.612 25.74h-46.545c-44.823 0-93.091 24.623-93.091 78.708v429.708c0 53.295 38.772 96.675 86.435 96.675h664.948zM844.474 913.455h-664.948c-73.449 0-132.98-64.093-132.98-143.22v-429.661c0-79.081 66.188-125.3 139.636-125.3h46.545l46.545-93.091 66.513-139.636 73.123 139.636 46.545 93.091h372.364c73.449 0 139.636 46.22 139.636 125.254v429.708c0 79.127-59.532 143.22-132.98 143.22v0zM232.727 727.273h558.545v-46.545h-558.545v46.545zM232.727 587.636h558.545v-46.545h-558.545v46.545zM232.727 448h558.545v-46.545h-558.545v46.545z" />
<glyph unicode="&#xe946;" glyph-name="toolsbar-tag" d="M541.417 879.43c6.33 6.516 13.591 6.191 13.591 6.191s356.585 0 372.364 0c15.825 0 22.109-10.193 22.109-21.039 0.093-10.799 1.071-360.215 0.559-370.083-0.652-9.914-1.536-12.66-6.935-18.106-5.399-5.399-457.402-456.797-457.402-456.797s-14.103-17.827-32.023 0c-17.873 17.873-360.401 358.493-371.572 370.083-11.078 11.59-7.401 23.645 0 31.092 7.354 7.401 452.98 452.143 459.311 458.659v0zM561.199 913.455c-20.387 0-31.558-5.26-45.196-18.572-13.731-13.312-430.825-431.383-454.982-455.587-24.157-24.25-14.662-53.341 3.863-71.913 18.525-18.525 339.968-338.991 366.964-365.847 26.903-26.857 52.364-23.692 76.055 0 23.645 23.645 444.742 445.207 455.727 456.239 10.938 10.938 13.824 19.084 13.824 41.984s0 343.226 0 367.942c0 24.716-22.295 45.754-47.616 45.754-25.274 0-348.253 0-368.64 0v0zM865.839 703.348c0-56.46-44.172-102.26-98.63-102.26s-98.537 45.754-98.537 102.26c0 56.506 44.079 102.26 98.537 102.26s98.63-45.801 98.63-102.26v0zM767.162 775.633c-39.889 0-72.378-32.349-72.378-72.285s32.396-72.285 72.378-72.285c39.889 0 72.332 32.349 72.332 72.285s-32.349 72.285-72.332 72.285v0z" />
<glyph unicode="&#xe947;" glyph-name="toolsbar-track" d="M46.545 820.364v-744.727h930.909v744.727h-930.909zM930.909 122.182h-837.818v512l418.909-356.073 418.909 356.073v-512zM512 372.922l-418.909 307.805v93.091h837.818v-93.091l-418.909-307.805z" />
<glyph unicode="&#xe948;" glyph-name="toolsbar-video" d="M677.325 204.8c0-21.197-18.074-38.4-40.192-38.4h-574.31c-22.221 0-40.192 17.203-40.192 38.4v486.298c0 21.299 18.022 38.502 40.192 38.502h574.259c22.221 0 40.192-17.203 40.192-38.502v-486.298zM1001.523 268.8l-204.8 173.312 204.8 185.088z" />
<glyph unicode="&#xe949;" glyph-name="toolsbar-warn" d="M512.614 890.317c51.456 0.717 40.755-51.712 40.755-100.915 0-20.685 3.43-46.848-4.659-60.16-5.837-9.574-15.514-15.411-28.723-17.613-7.731-1.28-14.848 1.894-19.456 4.147-28.262 14.438-20.326 56.576-20.326 97.69 0 17.203-3.635 40.294 1.894 53.709 5.939 14.643 15.667 16.947 30.515 23.142v0zM249.702 801.894c11.93 0.051 20.173-3.123 26.778-8.346 17.203-20.992 34.304-41.984 51.405-62.976 8.55-10.957 21.299-21.197 26.88-34.714 7.782-18.893-3.584-37.376-15.258-44.442-12.237-7.424-31.283-5.222-41.677 2.355-12.39 9.011-22.067 25.856-31.539 37.939-9.37 11.622-18.79 23.142-28.16 34.765-13.056 16.691-34.304 36.301-13.875 62.464 6.349 8.243 14.643 8.653 25.446 12.954v0zM775.987 789.402c26.47 0.461 51.866-19.866 40.294-48.64-5.632-13.926-18.944-22.784-27.802-33.792-11.827-13.261-23.808-26.573-35.635-39.782-6.298-7.834-13.363-18.022-21.76-23.603-9.523-6.298-27.904-8.294-38.912-1.843-14.387 8.397-25.6 31.13-13.875 50.432 11.725 13.107 23.45 26.266 35.226 39.373 9.318 10.342 18.483 20.685 27.802 30.976 5.99 7.526 12.493 16.589 20.787 21.76 4.608 1.741 9.267 3.43 13.875 5.12v0zM738.048 140.39h-453.171v207.872c0 41.83-2.714 88.218 6.963 120.832 18.074 61.133 53.197 103.68 102.707 133.325 21.709 12.902 46.131 22.067 75.059 28.16 9.574 0.973 19.149 1.894 28.672 2.816 8.858 0.154 17.613 0.307 26.419 0.461 19.661-3.021 37.376-4.096 54.221-9.267 76.595-23.808 129.28-77.875 152.32-155.546 9.626-32.563 6.963-78.592 6.963-120.371-0.154-69.376-0.154-138.752-0.154-208.282v0zM101.53 565.35c13.261 0.256 22.733-2.714 33.331-5.069 20.378-4.045 40.755-8.038 61.133-12.032 15.36-3.584 31.59-3.789 41.165-12.954 9.83-9.472 16.845-29.44 7.475-44.902-5.12-8.448-14.029-15.155-25.037-17.613-11.52-2.56-23.552 1.997-32.87 4.198-20.378 3.994-40.704 7.987-61.082 12.032-15.667 3.686-32.358 4.147-43.11 12.442-14.899 11.622-17.152 41.984-1.331 54.63 6.093 4.864 12.237 5.786 20.326 9.267v0zM914.022 546.816c30.72 0.307 51.507-31.949 32.307-57.856-10.291-14.080-28.518-13.619-49.408-17.562-20.685-3.123-41.472-6.195-62.106-9.267-9.267-1.792-21.299-5.478-32-3.226-11.981 2.611-22.374 10.291-26.726 20.378-9.114 20.378 2.662 41.523 17.51 48.128 8.55 3.789 19.61 3.482 30.054 5.581 20.531 3.226 41.062 6.451 61.594 9.677 9.574 1.382 19.098 2.765 28.774 4.147v0zM240.486 109.414h443.341c56.422 0 105.626 10.086 127.795-26.726 4.198-7.066 8.704-18.278 6.502-30.976-9.626-56.32-69.222-45.005-132.864-44.902h-411.034c-15.77-0.102-34.97-1.741-46.797 2.765-25.242 9.574-46.387 43.366-27.238 74.906 5.376 9.011 14.746 17.101 24.934 21.299 5.171 1.178 10.291 2.406 15.36 3.635v0z" />
<glyph unicode="&#xe94a;" glyph-name="wind-monitor" d="M395.008 660.531c0 16.333 3.072 31.59 9.165 45.568 6.042 13.875 14.387 26.214 24.986 36.813 10.65 10.701 22.938 19.046 36.915 25.088s29.082 9.062 45.517 9.062c15.821 0 30.669-3.021 44.646-9.062 13.875-6.042 26.214-14.387 36.813-25.088 10.65-10.598 18.995-22.886 25.088-36.813 6.042-13.926 9.114-29.184 9.114-45.568 0-15.77-3.072-30.771-9.114-45.107-6.093-14.234-14.438-26.573-25.088-36.864-10.598-10.291-22.886-18.432-36.813-24.576-14.029-5.99-28.877-9.062-44.698-9.062h-10.906c-3.072 0-6.042 0.666-9.114 1.843h-434.278v113.766h337.766zM628.992 316.416c15.821 0 30.515-2.867 44.083-8.602 13.773-5.786 25.702-13.875 35.994-24.166s18.278-22.374 24.115-35.942c5.786-13.722 8.704-28.416 8.704-44.186s-2.918-30.515-8.704-44.083c-5.734-13.722-13.824-25.549-24.115-35.533-10.291-9.933-22.323-18.074-35.994-24.064-13.67-6.093-28.365-9.216-44.083-9.216-15.821 0-30.618 3.123-44.134 9.216-13.67 5.99-25.498 13.978-35.43 24.064-10.035 9.984-18.125 21.965-24.166 35.533-6.093 13.67-9.114 28.416-9.114 44.083v0.973h-516.25v113.818h627.302v-1.741h1.792v-0.154zM882.125 661.453c19.507 0 37.786-3.738 55.091-11.418 17.306-7.578 32.307-17.92 45.107-30.925 12.698-13.005 22.886-28.211 30.515-45.466 7.578-17.357 11.366-35.686 11.366-55.091 0-20.122-3.738-38.707-11.366-56.064-7.526-17.254-17.818-32.307-30.515-45.107-12.8-12.698-27.802-22.835-45.107-30.515-17.306-7.475-35.584-11.366-55.091-11.366h-882.176v113.971h741.939c-1.843 9.011-2.714 18.739-2.714 29.082 0 19.405 3.738 37.734 11.418 55.091 7.475 17.254 17.715 32.461 30.413 45.466 12.8 13.056 27.802 23.347 45.107 30.925 17.306 7.68 35.994 11.418 56.013 11.418v0z" />
</font>
</defs>
</svg>
